<svg xmlns="http://www.w3.org/2000/svg" width="47.848" height="32.608" viewBox="0 0 47.848 32.608">
  <g id="Group_705" data-name="Group 705" transform="translate(-258.9 -728.492)">
    <g id="camera-video" transform="translate(257.875 740.967)">
      <path id="Path_49" data-name="Path 49" d="M3.964,6.935A1.528,1.528,0,0,0,2.435,8.464v8.731a1.528,1.528,0,0,0,1.529,1.529h8.731a1.528,1.528,0,0,0,1.529-1.529V8.464a1.528,1.528,0,0,0-1.529-1.529ZM1.125,8.464A2.838,2.838,0,0,1,3.964,5.625h8.731a2.838,2.838,0,0,1,2.839,2.839v8.731a2.838,2.838,0,0,1-2.839,2.839H3.964a2.839,2.839,0,0,1-2.839-2.839Z" fill="#fff" stroke="#fff" stroke-width="0.2" fill-rule="evenodd"/>
      <path id="Path_50" data-name="Path 50" d="M24.842,10.222l3.626-2.1a.417.417,0,0,1,.632.345v9.672a.417.417,0,0,1-.632.346l-3.624-2.1-.657,1.133,3.624,2.1a1.727,1.727,0,0,0,2.6-1.479V8.464a1.727,1.727,0,0,0-2.6-1.477l-3.623,2.1.657,1.133Z" transform="translate(-9.636 -0.471)" fill="#fff" stroke="#fff" stroke-width="0.2" fill-rule="evenodd"/>
    </g>
    <g id="camera-video-2" data-name="camera-video" transform="translate(285.875 740.967)">
      <path id="Path_49-2" data-name="Path 49" d="M3.964,6.935A1.528,1.528,0,0,0,2.435,8.464v8.731a1.528,1.528,0,0,0,1.529,1.529h8.731a1.528,1.528,0,0,0,1.529-1.529V8.464a1.528,1.528,0,0,0-1.529-1.529ZM1.125,8.464A2.838,2.838,0,0,1,3.964,5.625h8.731a2.838,2.838,0,0,1,2.839,2.839v8.731a2.838,2.838,0,0,1-2.839,2.839H3.964a2.839,2.839,0,0,1-2.839-2.839Z" fill="#fff" stroke="#fff" stroke-width="0.2" fill-rule="evenodd"/>
      <path id="Path_50-2" data-name="Path 50" d="M24.842,10.222l3.626-2.1a.417.417,0,0,1,.632.345v9.672a.417.417,0,0,1-.632.346l-3.624-2.1-.657,1.133,3.624,2.1a1.727,1.727,0,0,0,2.6-1.479V8.464a1.727,1.727,0,0,0-2.6-1.477l-3.623,2.1.657,1.133Z" transform="translate(-9.636 -0.471)" fill="#fff" stroke="#fff" stroke-width="0.2" fill-rule="evenodd"/>
    </g>
  </g>
  <g id="camera-video-3" data-name="camera-video" transform="translate(13.975 -5.525)">
    <path id="Path_49-3" data-name="Path 49" d="M3.964,6.935A1.528,1.528,0,0,0,2.435,8.464v8.731a1.528,1.528,0,0,0,1.529,1.529h8.731a1.528,1.528,0,0,0,1.529-1.529V8.464a1.528,1.528,0,0,0-1.529-1.529ZM1.125,8.464A2.838,2.838,0,0,1,3.964,5.625h8.731a2.838,2.838,0,0,1,2.839,2.839v8.731a2.838,2.838,0,0,1-2.839,2.839H3.964a2.839,2.839,0,0,1-2.839-2.839Z" fill="#fff" stroke="#fff" stroke-width="0.2" fill-rule="evenodd"/>
    <path id="Path_50-3" data-name="Path 50" d="M24.842,10.222l3.626-2.1a.417.417,0,0,1,.632.345v9.672a.417.417,0,0,1-.632.346l-3.624-2.1-.657,1.133,3.624,2.1a1.727,1.727,0,0,0,2.6-1.479V8.464a1.727,1.727,0,0,0-2.6-1.477l-3.623,2.1.657,1.133Z" transform="translate(-9.636 -0.471)" fill="#fff" stroke="#fff" stroke-width="0.2" fill-rule="evenodd"/>
  </g>
</svg>
