<svg xmlns="http://www.w3.org/2000/svg" width="43.893" height="32.109" viewBox="0 0 43.893 32.109">
  <g id="mic" transform="translate(-6.65 10.1)">
    <path id="Path_53" data-name="Path 53" d="M7.435,14.625a.685.685,0,0,1,.685.685v1.369a5.477,5.477,0,1,0,10.955,0V15.31a.685.685,0,1,1,1.369,0v1.369a6.847,6.847,0,0,1-6.162,6.813v2.773h4.108a.685.685,0,1,1,0,1.369H8.8a.685.685,0,1,1,0-1.369h4.108V23.492A6.847,6.847,0,0,1,6.75,16.679V15.31A.685.685,0,0,1,7.435,14.625Z" transform="translate(0 -5.724)" fill="#fff" stroke="#fff" stroke-width="0.2" fill-rule="evenodd"/>
    <path id="Path_54" data-name="Path 54" d="M18.1,10.955V4.108a2.739,2.739,0,1,0-5.477,0v6.847a2.739,2.739,0,0,0,5.477,0ZM15.358,0A4.108,4.108,0,0,0,11.25,4.108v6.847a4.108,4.108,0,0,0,8.216,0V4.108A4.108,4.108,0,0,0,15.358,0Z" transform="translate(-1.761)" fill="#fff" stroke="#fff" stroke-width="0.2" fill-rule="evenodd"/>
  </g>
  <g id="mic-2" data-name="mic" transform="translate(23.35 10.1)">
    <path id="Path_53-2" data-name="Path 53" d="M7.435,14.625a.685.685,0,0,1,.685.685v1.369a5.477,5.477,0,1,0,10.955,0V15.31a.685.685,0,1,1,1.369,0v1.369a6.847,6.847,0,0,1-6.162,6.813v2.773h4.108a.685.685,0,1,1,0,1.369H8.8a.685.685,0,1,1,0-1.369h4.108V23.492A6.847,6.847,0,0,1,6.75,16.679V15.31A.685.685,0,0,1,7.435,14.625Z" transform="translate(0 -5.724)" fill="#fff" stroke="#fff" stroke-width="0.2" fill-rule="evenodd"/>
    <path id="Path_54-2" data-name="Path 54" d="M18.1,10.955V4.108a2.739,2.739,0,1,0-5.477,0v6.847a2.739,2.739,0,0,0,5.477,0ZM15.358,0A4.108,4.108,0,0,0,11.25,4.108v6.847a4.108,4.108,0,0,0,8.216,0V4.108A4.108,4.108,0,0,0,15.358,0Z" transform="translate(-1.761)" fill="#fff" stroke="#fff" stroke-width="0.2" fill-rule="evenodd"/>
  </g>
  <g id="mic-3" data-name="mic" transform="translate(8.35 0.1)">
    <path id="Path_53-3" data-name="Path 53" d="M7.435,14.625a.685.685,0,0,1,.685.685v1.369a5.477,5.477,0,1,0,10.955,0V15.31a.685.685,0,1,1,1.369,0v1.369a6.847,6.847,0,0,1-6.162,6.813v2.773h4.108a.685.685,0,1,1,0,1.369H8.8a.685.685,0,1,1,0-1.369h4.108V23.492A6.847,6.847,0,0,1,6.75,16.679V15.31A.685.685,0,0,1,7.435,14.625Z" transform="translate(0 -5.724)" fill="#fff" stroke="#fff" stroke-width="0.2" fill-rule="evenodd"/>
    <path id="Path_54-3" data-name="Path 54" d="M18.1,10.955V4.108a2.739,2.739,0,1,0-5.477,0v6.847a2.739,2.739,0,0,0,5.477,0ZM15.358,0A4.108,4.108,0,0,0,11.25,4.108v6.847a4.108,4.108,0,0,0,8.216,0V4.108A4.108,4.108,0,0,0,15.358,0Z" transform="translate(-1.761)" fill="#fff" stroke="#fff" stroke-width="0.2" fill-rule="evenodd"/>
  </g>
</svg>
