<svg xmlns="http://www.w3.org/2000/svg" width="58" height="58" viewBox="0 0 58 58">
  <path id="Icon" d="M871.416,859.2l-1.642-.152a.771.771,0,0,1-.663-.539,8.39,8.39,0,0,0-.558-1.346.772.772,0,0,1,.087-.851l1.054-1.269a.768.768,0,0,0-.048-1.033l-1.544-1.544a.768.768,0,0,0-1.033-.048l-1.269,1.054a.771.771,0,0,1-.851.087A8.4,8.4,0,0,0,863.6,853a.771.771,0,0,1-.539-.663l-.152-1.642a.768.768,0,0,0-.764-.7h-2.183a.768.768,0,0,0-.765.7l-.152,1.642a.771.771,0,0,1-.539.663,8.4,8.4,0,0,0-1.346.558.772.772,0,0,1-.851-.087l-1.269-1.054a.768.768,0,0,0-1.033.048l-1.544,1.544a.768.768,0,0,0-.048,1.033l1.054,1.269a.772.772,0,0,1,.087.851,8.4,8.4,0,0,0-.558,1.346.771.771,0,0,1-.663.539l-1.642.152a.768.768,0,0,0-.7.765v2.183a.768.768,0,0,0,.7.764l1.642.152a.771.771,0,0,1,.663.539,8.393,8.393,0,0,0,.558,1.346.771.771,0,0,1-.087.851l-1.054,1.269a.768.768,0,0,0,.048,1.033l1.544,1.544a.768.768,0,0,0,1.033.048l1.269-1.054a.772.772,0,0,1,.851-.087,8.385,8.385,0,0,0,1.346.558.771.771,0,0,1,.539.663l.152,1.642a.768.768,0,0,0,.765.7h2.183a.768.768,0,0,0,.764-.7l.152-1.642a.771.771,0,0,1,.539-.663,8.387,8.387,0,0,0,1.346-.558.772.772,0,0,1,.851.087l1.269,1.054a.768.768,0,0,0,1.033-.048l1.544-1.544a.768.768,0,0,0,.048-1.033L868.64,865.8a.772.772,0,0,1-.087-.851,8.39,8.39,0,0,0,.558-1.346.771.771,0,0,1,.663-.539l1.642-.152a.768.768,0,0,0,.7-.764v-2.183A.768.768,0,0,0,871.416,859.2Zm-10.359,5.951a4.095,4.095,0,1,1,4.095-4.095A4.095,4.095,0,0,1,861.056,865.151Z" transform="translate(-831.719 -832.394)" fill="#fff" stroke="#fff" stroke-width="1.2"/>
  <g id="Rectangle_1343" data-name="Rectangle 1343" fill="none" stroke="#fff" stroke-width="2">
    <rect width="58" height="58" rx="14" stroke="none"/>
    <rect x="1" y="1" width="56" height="56" rx="13" fill="none"/>
  </g>
</svg>
