<svg xmlns="http://www.w3.org/2000/svg" width="35.691" height="32.946" viewBox="0 0 35.691 32.946">
  <path id="Path_98" data-name="Path 98" d="M27.587,9.5a1.661,1.661,0,0,1,.806.606,1.546,1.546,0,0,1,.3.919,1.6,1.6,0,0,1-.28.912,1.554,1.554,0,0,1-.785.6L2.581,21.913a2.119,2.119,0,0,1-.734.143,1.89,1.89,0,0,1-1.166-.378A1.58,1.58,0,0,1,.1,20.929a1.534,1.534,0,0,1-.05-.918l2.289-8.989L.048,2.032A1.535,1.535,0,0,1,.1,1.114,1.579,1.579,0,0,1,.681.365a1.764,1.764,0,0,1,.54-.274A2.021,2.021,0,0,1,1.818,0,2.357,2.357,0,0,1,2.61.143Zm-2.966,2.358H4.021L1.832,20.388Zm-20.6-1.668h20.6L1.875,1.668Z" transform="matrix(0.883, -0.469, 0.469, 0.883, 0, 13.472)" fill="#d0d0d0"/>
</svg>
