<svg xmlns="http://www.w3.org/2000/svg" width="33.738" height="29.881" viewBox="0 0 33.738 29.881">
  <g id="グループ_374" data-name="グループ 374" transform="translate(-144.878 -392.073)">
    <g id="camera-video-off" transform="translate(145.128 395.67)">
      <path id="パス_56" data-name="パス 56" d="M146.4,397.191a4.789,4.789,0,0,0-1.274,3.26v14.773a4.8,4.8,0,0,0,4.8,4.8H164.7a4.771,4.771,0,0,0,3.258-1.274l-1.568-1.569a2.575,2.575,0,0,1-1.689.628H149.93a2.585,2.585,0,0,1-2.586-2.586V400.451a2.589,2.589,0,0,1,.628-1.689Zm20.885,11.483v-8.227a2.586,2.586,0,0,0-2.584-2.586h-8.229l-2.216-2.216H164.7a4.8,4.8,0,0,1,4.756,4.13l4.514-2.619a2.921,2.921,0,0,1,4.4,2.5v16.362a2.829,2.829,0,0,1-1.317,2.417l-1.753-1.751c.425-.033.751-.159.835-.537a.676.676,0,0,0,.016-.135V399.651a.705.705,0,0,0-1.069-.584L169.5,402.3v8.583Z" transform="translate(-145.128 -395.646)" fill="#fff" stroke="#fff" stroke-width="0.5"/>
    </g>
    <path id="パス_60" data-name="パス 60" d="M173.987,421.7a1.228,1.228,0,0,1-.871-.36L146.269,394.5a1.231,1.231,0,0,1,1.741-1.741L174.857,419.6a1.231,1.231,0,0,1-.87,2.1Z" transform="translate(0.006)" fill="#fff" stroke="#fff" stroke-width="0.5"/>
  </g>
</svg>
