<svg xmlns="http://www.w3.org/2000/svg" width="33.5" height="24.699" viewBox="0 0 33.5 24.699">
  <g id="camera-video" transform="translate(-0.875 -5.375)">
    <path id="Path_49" data-name="Path 49" d="M5.893,7.825a2.567,2.567,0,0,0-2.568,2.568V25.057a2.567,2.567,0,0,0,2.568,2.568H20.557a2.567,2.567,0,0,0,2.568-2.568V10.393a2.567,2.567,0,0,0-2.568-2.568ZM1.125,10.393A4.767,4.767,0,0,1,5.893,5.625H20.557a4.767,4.767,0,0,1,4.768,4.768V25.057a4.767,4.767,0,0,1-4.768,4.768H5.893a4.768,4.768,0,0,1-4.768-4.768Z" fill="#e1041b" stroke="#e1041b" stroke-width="0.5" fill-rule="evenodd"/>
    <path id="Path_50" data-name="Path 50" d="M25.288,12.58,31.377,9.05a.7.7,0,0,1,1.061.579V25.873a.7.7,0,0,1-1.061.581L25.29,22.923l-1.1,1.9,6.087,3.531a2.9,2.9,0,0,0,4.365-2.483V9.628a2.9,2.9,0,0,0-4.365-2.482l-6.086,3.531,1.1,1.9Z" transform="translate(-0.513 -0.025)" fill="#e1041b" stroke="#e1041b" stroke-width="0.5" fill-rule="evenodd"/>
  </g>
</svg>
