<svg xmlns="http://www.w3.org/2000/svg" width="31.63" height="29.552" viewBox="0 0 31.63 29.552">
  <g id="chat-dots" transform="translate(2.084 -0.288)">
    <path id="Path_51" data-name="Path 51" d="M5.211,23.446A1.946,1.946,0,0,1,5.769,25,21.344,21.344,0,0,1,4.995,28.9a22.967,22.967,0,0,0,5.124-1.737,1.946,1.946,0,0,1,1.381-.144,15.682,15.682,0,0,0,4.065.528c7.775,0,13.619-5.462,13.619-11.674S23.339,4.2,15.565,4.2,1.946,9.659,1.946,15.869a10.69,10.69,0,0,0,3.265,7.576Zm-.959,7.6q-.691.137-1.387.251a.506.506,0,0,1-.531-.7q.259-.611.475-1.239l.006-.019a20.346,20.346,0,0,0,1.019-4.512A12.636,12.636,0,0,1,0,15.869C0,8.347,6.969,2.25,15.565,2.25S31.13,8.347,31.13,15.869,24.161,29.488,15.565,29.488a17.627,17.627,0,0,1-4.567-.6,26.6,26.6,0,0,1-6.747,2.15Z" transform="translate(-1.834 -1.712)" fill="#e1041b" stroke="#e1041b" stroke-width="0.5" fill-rule="evenodd"/>
    <path id="Path_52" data-name="Path 52" d="M9.989,17.369A1.619,1.619,0,1,1,8.369,15.75,1.619,1.619,0,0,1,9.989,17.369Zm6.478,0a1.619,1.619,0,1,1-1.619-1.619A1.619,1.619,0,0,1,16.467,17.369Zm6.478,0a1.619,1.619,0,1,1-1.619-1.619A1.619,1.619,0,0,1,22.944,17.369Z" transform="translate(-1.063 -2.563)" fill="#e1041b" stroke="#e1041b" stroke-width="0.5"/>
  </g>
</svg>
