<svg xmlns="http://www.w3.org/2000/svg" width="22.506" height="31.5" viewBox="0 0 22.506 31.5">
  <g id="hourglass-outline" transform="translate(-6.747 -2.25)">
    <path id="Path_1578" data-name="Path 1578" d="M10.238,32.625H25.762a2.287,2.287,0,0,0,2.35-2.465c-.967-8.5-6.737-8.363-6.737-12.16s5.844-3.586,6.736-12.16a2.291,2.291,0,0,0-2.349-2.465H10.238A2.293,2.293,0,0,0,7.889,5.84c.892,8.574,6.736,8.293,6.736,12.16s-5.77,3.656-6.736,12.16A2.286,2.286,0,0,0,10.238,32.625Z" fill="none" stroke="#fff" stroke-linecap="round" stroke-linejoin="round" stroke-width="2.25"/>
    <path id="Path_1579" data-name="Path 1579" d="M24.138,30.375H11.892c-1.1,0-1.406-1.266-.637-2.05,1.862-1.887,5.62-3.239,5.62-5.4V15.75c0-1.4-2.672-2.461-4.325-4.725-.273-.373-.245-.9.448-.9H23.034a.533.533,0,0,1,.45.9c-1.629,2.268-4.359,3.326-4.359,4.729v7.172c0,2.147,3.917,3.305,5.653,5.405.7.847.455,2.048-.64,2.048Z" transform="translate(0 -1)" fill="#fff"/>
  </g>
</svg>
