<svg xmlns="http://www.w3.org/2000/svg" width="21.01" height="33.316" viewBox="0 0 21.01 33.316">
  <g id="mic" transform="translate(-6.5 0.25)">
    <path id="Path_53" data-name="Path 53" d="M7.775,14.625A1.025,1.025,0,0,1,8.8,15.65V17.7a8.2,8.2,0,1,0,16.408,0V15.65a1.025,1.025,0,0,1,2.051,0V17.7a10.255,10.255,0,0,1-9.23,10.2v4.153h6.153a1.025,1.025,0,1,1,0,2.051H9.826a1.025,1.025,0,1,1,0-2.051h6.153V27.905A10.255,10.255,0,0,1,6.75,17.7V15.65A1.025,1.025,0,0,1,7.775,14.625Z" transform="translate(0 -1.294)" fill="#fff" stroke="#fff" stroke-width="0.5" fill-rule="evenodd"/>
    <path id="Path_54" data-name="Path 54" d="M21.5,16.408V6.153a4.1,4.1,0,1,0-8.2,0V16.408a4.1,4.1,0,0,0,8.2,0ZM17.4,0A6.153,6.153,0,0,0,11.25,6.153V16.408a6.153,6.153,0,0,0,12.306,0V6.153A6.153,6.153,0,0,0,17.4,0Z" transform="translate(-0.398)" fill="#fff" stroke="#fff" stroke-width="0.5" fill-rule="evenodd"/>
  </g>
</svg>
