<svg id="Group_674" data-name="Group 674" xmlns="http://www.w3.org/2000/svg" width="12.033" height="14.557" viewBox="0 0 12.033 14.557">
  <path id="パス_55" data-name="パス 55" d="M1940.874,2462.572a4.542,4.542,0,0,0,.242-1.467v-.911a.455.455,0,0,0-.91,0v.911a3.616,3.616,0,0,1-.073.727Zm-2.294,1.565a3.639,3.639,0,0,1-5.651-3.032v-.911a.455.455,0,0,0-.91,0v.911a4.549,4.549,0,0,0,4.094,4.525v1.842h-2.729a.455.455,0,0,0,0,.909h6.368a.455.455,0,1,0,0-.909h-2.729v-1.842a4.523,4.523,0,0,0,2.21-.84l-.653-.654Zm.717-3.142v-4.439a2.729,2.729,0,0,0-5.315-.876l.769.768a1.819,1.819,0,0,1,3.636.108v3.529l.91.909Zm-2.058,1.8.681.681a2.73,2.73,0,0,1-4.081-2.372v-1.71l.91.909v.8a1.818,1.818,0,0,0,2.491,1.691Z" transform="translate(-1930.301 -2453.825)" fill="#fff" fill-rule="evenodd"/>
  <path id="Path_59" data-name="Path 59" d="M1939.3,2466.449a.5.5,0,0,1-.358-.148l-11.022-11.021a.505.505,0,0,1,.715-.715l11.022,11.021a.506.506,0,0,1-.357.863Z" transform="translate(-1927.769 -2454.177)" fill="#fff"/>
</svg>
