<svg xmlns="http://www.w3.org/2000/svg" width="21.273" height="32.157" viewBox="0 0 21.273 32.157">
  <g id="Group_278" data-name="Group 278" transform="translate(0.5 0.5)">
    <path id="Path_43" data-name="Path 43" d="M2444.284,624.961h-2.007a.625.625,0,0,0-.625.625h0a.625.625,0,0,0,.625.625h1.381v24.764h-1.381a.625.625,0,0,0-.625.625h0a.625.625,0,0,0,.625.625h2.007a.625.625,0,0,0,.625-.625V625.586A.625.625,0,0,0,2444.284,624.961Z" transform="translate(-2424.636 -623.014)" fill="#fff" stroke="#fff" stroke-width="1"/>
    <path id="Path_44" data-name="Path 44" d="M1364.482,500a.882.882,0,0,0-.132.01l-14.286,2.179a.868.868,0,0,0-.737.858v25.064a.868.868,0,0,0,.737.858l14.286,2.178a.882.882,0,0,0,.132.01.868.868,0,0,0,.866-.868V500.868A.868.868,0,0,0,1364.482,500Zm-.326,29.912-13.638-2.079V503.325l13.638-2.08Z" transform="translate(-1349.327 -500)" fill="#fff" stroke="#fff" stroke-width="1"/>
    <circle id="Ellipse_30" data-name="Ellipse 30" cx="0.858" cy="0.858" r="0.858" transform="translate(10.228 14.686)" fill="#fff" stroke="#fff" stroke-width="1"/>
  </g>
</svg>
