<svg xmlns="http://www.w3.org/2000/svg" width="38" height="38" viewBox="0 0 38 38">
  <g id="Group_704" data-name="Group 704" transform="translate(-827 -137)">
    <rect id="Rectangle_1855" data-name="Rectangle 1855" width="38" height="38" rx="12" transform="translate(827 137)" fill="#97a0a2"/>
    <g id="pause" transform="translate(830.011 140.815)">
      <path id="Path_1576" data-name="Path 1576" d="M13.424,7.185a.641.641,0,0,0-.076.007V7.185H10.57a.581.581,0,0,0-.581.581h0V22.747h0v0a.581.581,0,0,0,.581.581h2.854A.581.581,0,0,0,14,22.749v0h0V7.768h0a.581.581,0,0,0-.581-.581Z" transform="translate(0)" fill="#fff"/>
      <path id="Path_1577" data-name="Path 1577" d="M24.646,22.747V7.768h0a.581.581,0,0,0-.581-.581.641.641,0,0,0-.076.007V7.185H21.211a.581.581,0,0,0-.581.581h0V22.747h0v0a.581.581,0,0,0,.581.581h2.853a.581.581,0,0,0,.581-.581S24.645,22.747,24.646,22.747Z" transform="translate(-2.698 0)" fill="#fff"/>
    </g>
  </g>
</svg>
