<svg id="Group_371" data-name="Group 371" xmlns="http://www.w3.org/2000/svg" width="16.127" height="22.734" viewBox="0 0 16.127 22.734">
  <path id="Path_83" data-name="Path 83" d="M1335.9,703.1h-8.847a.392.392,0,0,0-.355.268h0c0,.961.043,1.761.951,1.939a.353.353,0,0,1,.285.382l-.523,4.966a3.134,3.134,0,0,1-1.688,2.453,4.251,4.251,0,0,0-2.3,3.78.36.36,0,0,0,.36.359h15.408a.36.36,0,0,0,.36-.359h0a4.251,4.251,0,0,0-2.3-3.78,3.133,3.133,0,0,1-1.687-2.453l-.523-4.966a.353.353,0,0,1,.285-.382c.908-.178.85-.978.85-1.939h0A.268.268,0,0,0,1335.9,703.1Z" transform="translate(-1323.424 -703.101)" fill="#fff"/>
  <path id="Path_84" data-name="Path 84" d="M1909.716,1604.261l1.065,2.13,1.065-2.13V1594.3h-2.13Z" transform="translate(-1902.717 -1583.657)" fill="#fff"/>
</svg>
