<svg xmlns="http://www.w3.org/2000/svg" width="34.55" height="30.8" viewBox="0 0 34.55 30.8">
  <path id="Path_58" data-name="Path 58" d="M2149.422,2467.438h-27.094a3.329,3.329,0,0,0-3.328,3.33v17.715a3.33,3.33,0,0,0,3.33,3.33h12.608v3.75H2124a.938.938,0,0,0,0,1.875h23.749a.938.938,0,0,0,0-1.875h-10.937v-3.75h12.608a3.33,3.33,0,0,0,3.33-3.33v-17.715A3.329,3.329,0,0,0,2149.422,2467.438Zm1.453,21.034a1.471,1.471,0,0,1-1.466,1.466h-27.084a1.449,1.449,0,0,1-1.449-1.449v-17.709a1.471,1.471,0,0,1,1.466-1.466h27.084a1.449,1.449,0,0,1,1.449,1.451Z" transform="translate(-2118.6 -2467.038)" fill="#fff" stroke="#fff" stroke-width="0.8"/>
</svg>
