<svg xmlns="http://www.w3.org/2000/svg" width="24.781" height="28.053" viewBox="0 0 24.781 28.053">
  <g id="グループ_356" data-name="グループ 356" transform="translate(-112.264 -854.93)">
    <g id="グループ_352" data-name="グループ 352" transform="translate(112.264 870.345)">
      <path id="パス_71" data-name="パス 71" d="M123.446,1105.532h0a5.986,5.986,0,0,1-1.881.639h0a6.116,6.116,0,0,1-.98.079c-.06,0-.119,0-.178,0h0a5.962,5.962,0,0,1-1.156-.146h-.005a5.963,5.963,0,0,1-1.518-.569h0a5.99,5.99,0,0,0-5.461,5.966v4.094a1.619,1.619,0,0,0,1.127,1.547,25.631,25.631,0,0,0,14.388,0,1.619,1.619,0,0,0,1.127-1.547V1111.5A5.99,5.99,0,0,0,123.446,1105.532Z" transform="translate(-112.264 -1105.532)" fill="#adadad"/>
    </g>
    <g id="グループ_353" data-name="グループ 353" transform="translate(115.635 860.058)">
      <path id="パス_72" data-name="パス 72" d="M171.712,948.183c.081.005.163.008.245.008h.058a4.964,4.964,0,0,0,.864-.075c.1-.019.206-.04.308-.065a4.869,4.869,0,0,0,1.022-.372h0a4.536,4.536,0,0,0,.484-.275h0a4.968,4.968,0,0,0,1.947-2.4c.037-.1.072-.195.1-.3l.041-.138c0-.011.005-.021.008-.032.012-.043.022-.087.033-.131l.025-.107c.016-.073.03-.145.042-.218.006-.037.013-.074.018-.111.009-.061.017-.123.024-.185,0-.005,0-.009,0-.015,0-.038.008-.076.011-.113.005-.056.008-.112.012-.169l.006-.231v-.019a4.972,4.972,0,0,0-.083-.909,4.92,4.92,0,0,0-.171-.659h0a4.945,4.945,0,0,0-1.254-1.986s0,0,0,0a4.915,4.915,0,0,0-1.325-.919h0a4.933,4.933,0,0,0-2.116-.473h0a5,5,0,0,0-.672.045,4.921,4.921,0,0,0-.645.132c-.134.037-.265.081-.394.129a4.926,4.926,0,0,0-.789.371,4.93,4.93,0,0,0-1.436,1.275q-.114.149-.216.306a4.981,4.981,0,0,0-.724,1.837c0,.013,0,.026-.005.039a4.956,4.956,0,0,0-.063.591c0,.075-.005.15-.005.226,0,.105,0,.21.011.313a4.866,4.866,0,0,0,.245,1.262c.03.09.062.177.1.263a4.914,4.914,0,0,0,.433.839,4.983,4.983,0,0,0,1.485,1.486h0a4.78,4.78,0,0,0,.552.309h0a4.7,4.7,0,0,0,.558.224h0c.117.039.236.074.357.1h0A4.837,4.837,0,0,0,171.712,948.183Z" transform="translate(-167.066 -938.292)" fill="#adadad"/>
    </g>
    <g id="グループ_354" data-name="グループ 354" transform="translate(124.749 865.218)">
      <path id="パス_73" data-name="パス 73" d="M322.064,1022.186a5.993,5.993,0,0,1-1.7.607c-.081.016-.163.031-.245.043a6.067,6.067,0,0,1-.913.068H319.2c-.085,0-.17,0-.253-.005a5.9,5.9,0,0,1-.9-.106c-.083-.016-.166-.034-.249-.054a5.824,5.824,0,0,1-.7-.214,6.009,6.009,0,0,1-.125.8c-.009.042-.02.084-.031.127a5.974,5.974,0,0,1-.5,1.315h0a6.052,6.052,0,0,1-.979,1.372l-.233.233a7.152,7.152,0,0,1,5.316,6.911v1.512a23.445,23.445,0,0,0,5.852-1,1.619,1.619,0,0,0,1.127-1.547v-4.094A5.989,5.989,0,0,0,322.064,1022.186Z" transform="translate(-315.233 -1022.186)" fill="#adadad"/>
    </g>
    <g id="グループ_355" data-name="グループ 355" transform="translate(123.772 854.93)">
      <path id="パス_74" data-name="パス 74" d="M300.12,857.235a4.936,4.936,0,0,0-.765,2.626h0a6.042,6.042,0,0,1,2.791,4.175c.017.106.032.213.043.32h0a4.892,4.892,0,0,0,.9.322l.062.015c.022.006.044.011.066.016l.066.015.134.026q.174.032.351.051l.12.012h0c.061.005.121.009.182.013h.026l.062,0c.027,0,.056,0,.085,0h.063l.127,0c.033,0,.064,0,.1,0l.043,0,.089-.005.091-.007h.011c.037,0,.073-.006.11-.012l.064-.007.134-.019q.066-.01.133-.022c.037-.006.074-.014.11-.022l.022,0c.044-.008.087-.019.13-.03l.046-.01h0a4.89,4.89,0,0,0,1.472-.637,4.96,4.96,0,0,0,1.919-2.322,4.888,4.888,0,0,0,.317-1.236c.007-.058.014-.117.018-.175.013-.142.019-.286.019-.431a4.966,4.966,0,0,0-.032-.563c-.016-.14-.038-.278-.064-.414h0A4.948,4.948,0,0,0,307.5,856.1h0a4.946,4.946,0,0,0-6.61.209A5.009,5.009,0,0,0,300.12,857.235Z" transform="translate(-299.355 -854.93)" fill="#adadad"/>
    </g>
  </g>
</svg>
