<svg xmlns="http://www.w3.org/2000/svg" width="13.931" height="22.289" viewBox="0 0 13.931 22.289">
  <g id="mic" transform="translate(-6.75)">
    <path id="パス_53" data-name="パス 53" d="M7.447,14.625a.7.7,0,0,1,.7.7v1.393a5.572,5.572,0,1,0,11.144,0V15.322a.7.7,0,1,1,1.393,0v1.393a6.965,6.965,0,0,1-6.269,6.931v2.821h4.179a.7.7,0,1,1,0,1.393H8.84a.7.7,0,1,1,0-1.393h4.179V23.645A6.965,6.965,0,0,1,6.75,16.715V15.322A.7.7,0,0,1,7.447,14.625Z" transform="translate(0 -5.57)" fill="#fff" fill-rule="evenodd"/>
    <path id="パス_54" data-name="パス 54" d="M18.215,11.144V4.179a2.786,2.786,0,1,0-5.572,0v6.965a2.786,2.786,0,0,0,5.572,0ZM15.429,0A4.179,4.179,0,0,0,11.25,4.179v6.965a4.179,4.179,0,0,0,8.358,0V4.179A4.179,4.179,0,0,0,15.429,0Z" transform="translate(-1.714)" fill="#fff" fill-rule="evenodd"/>
  </g>
</svg>
