<svg xmlns="http://www.w3.org/2000/svg" width="16.708" height="16.71" viewBox="0 0 16.708 16.71">
  <g id="グループ_518" data-name="グループ 518" transform="translate(-741.67 -741.645)">
    <path id="パス_95" data-name="パス 95" d="M932.753,745.6a.593.593,0,0,0,.839.839l2.8-2.8a2.757,2.757,0,0,1,3.9,3.9L936.63,751.2a2.762,2.762,0,0,1-3.9,0,.593.593,0,1,0-.839.839,3.948,3.948,0,0,0,5.576,0l3.661-3.661a3.943,3.943,0,0,0-5.576-5.577Z" transform="translate(-183.902)" fill="#4a4a4a"/>
    <path id="パス_96" data-name="パス 96" d="M741.67,915.51A3.943,3.943,0,0,0,748.4,918.3l2.369-2.369a.593.593,0,1,0-.838-.839l-2.369,2.369a2.757,2.757,0,0,1-3.9-3.9l3.446-3.446a2.767,2.767,0,0,1,3.9,0,.593.593,0,0,0,.839-.839,3.948,3.948,0,0,0-5.576,0l-3.446,3.446A3.915,3.915,0,0,0,741.67,915.51Z" transform="translate(0 -161.094)" fill="#4a4a4a"/>
  </g>
</svg>
